<?xml version="1.0" encoding="utf-8"?>
<!-- Generator: Adobe Illustrator 15.0.2, SVG Export Plug-In . SVG Version: 6.00 Build 0)  -->
<!DOCTYPE svg PUBLIC "-//W3C//DTD SVG 1.1//EN" "http://www.w3.org/Graphics/SVG/1.1/DTD/svg11.dtd">
<svg version="1.1" id="Layer_1" xmlns="http://www.w3.org/2000/svg" x="0px" y="0px"
     width="864px" height="360px" viewBox="0 0 864 360" enable-background="new 0 0 864 360" xml:space="preserve">
<linearGradient id="SVGID_1_" gradientUnits="userSpaceOnUse" x1="719.8506" y1="178.8188" x2="830.4707" y2="178.8188">
	<stop  offset="0" style="stop-color:#000000"/>
	<stop  offset="0.3273" style="stop-color:#808080"/>
	<stop  offset="1" style="stop-color:#000000"/>
</linearGradient>
<path fill="url(#SVGID_1_)" d="M829.965,143.467c0.797-0.602,0.82-8.265-1.173-10.928l-2.009,0.996
	c-2.611-1.6-4.22-0.275-5.02,0.326l-99.621,77.915c-0.802,0.601-3.577,1.451-1.587,4.111l-0.135,9.15
	C722.417,227.695,829.965,143.467,829.965,143.467z"/>
<linearGradient id="SVGID_2_" gradientUnits="userSpaceOnUse" x1="383.3755" y1="225.9102" x2="383.3755" y2="212.8926">
	<stop  offset="0" style="stop-color:#000000"/>
	<stop  offset="0.3273" style="stop-color:#808080"/>
	<stop  offset="1" style="stop-color:#000000"/>
</linearGradient>
<path fill="url(#SVGID_2_)" d="M722.334,222.427c0,3.597-3.662,3.483-6.945,3.483H50.36c-3.283,0-5.944-2.911-5.944-6.508l0,0
	c0-3.596,2.661-6.51,5.944-6.51h668.031c3.283,0,3.943,2.914,3.943,6.51V222.427z"/>
<polygon fill="#211A10" points="720.152,213.241 41.057,213.242 229.528,132.562 828.199,132.562 "/>
<polygon fill="#B2B6BD" stroke="#788496" stroke-width="2.9993" stroke-miterlimit="10" points="329.961,147.208 295.606,147.107 
	295.223,142.305 245.666,142.305 251.667,140.135 299.869,140.09 323.396,135.412 355.705,135.502 356.788,140.105 399.244,140.138 
	395.205,142.301 351.899,142.305 "/>
<polyline fill="#B2B6BD" stroke="#788496" stroke-width="2.9993" stroke-miterlimit="10" points="395.43,140.09 416.578,135.412 
	448.93,135.502 452.357,140.105 494.836,140.14 491.915,142.31 448.591,142.305 429.153,147.208 394.745,147.109 391.917,142.307 
	"/>
<polyline fill="#B2B6BD" stroke="#788496" stroke-width="2.9993" stroke-miterlimit="10" points="492.339,140.09 511.072,135.412 
	543.474,135.501 549.275,140.105 591.768,140.14 589.951,142.31 546.646,142.305 529.729,147.208 495.273,147.107 489.964,142.307 
	"/>
<polyline fill="#B2B6BD" stroke="#788496" stroke-width="2.9993" stroke-miterlimit="10" points="611.674,134.759 648.517,135.412 
	672.49,135.501 677.961,140.105 724.59,140.14 720.661,142.31 675.262,142.305 655.643,147.208 598.995,147.107 594.403,142.305 "/>
<polyline fill="#B2B6BD" stroke="#788496" stroke-width="2.9993" stroke-miterlimit="10" points="730.33,140.146 751.22,135.467 
	783.602,135.554 787.283,140.162 783.629,142.363 764.457,147.271 730.02,147.17 726.933,142.366 "/>
<polygon fill="#DDDAC3" stroke="#788496" stroke-width="2.9993" stroke-miterlimit="10" points="254.421,157.311 218.308,157.199 
	219.921,151.89 225.713,149.449 252.332,144.3 286.168,144.396 285.473,149.465 330.032,149.501 324.958,151.896 279.461,151.89 "/>
<polyline fill="#DDDAC3" stroke="#788496" stroke-width="2.9993" stroke-miterlimit="10" points="327.841,149.449 351.783,144.3 
	385.671,144.396 387.604,149.465 432.188,149.501 428.354,151.897 382.853,151.885 360.62,157.311 324.462,157.2 323.315,151.89 "/>
<polyline fill="#DDDAC3" stroke="#788496" stroke-width="2.9993" stroke-miterlimit="10" points="429.576,149.449 450.862,144.303 
	484.803,144.396 489.342,149.467 533.94,149.501 531.356,151.897 485.85,151.89 466.409,157.311 430.205,157.2 426.315,151.89 "/>
<polyline fill="#DDDAC3" stroke="#788496" stroke-width="2.9993" stroke-miterlimit="10" points="531.31,149.449 549.938,144.3 
	583.922,144.396 591.09,149.465 655.999,149.501 652.639,151.897 588.84,151.89 572.201,157.311 535.929,157.2 529.313,151.89 "/>
<polyline fill="#DDDAC3" stroke="#788496" stroke-width="2.9993" stroke-miterlimit="10" points="667.396,146.847 688.988,144.358 
	722.893,144.458 725.086,149.53 775.081,149.566 771.451,151.961 720.473,151.956 698.532,157.379 662.356,157.267 660.922,151.958 
	"/>
<polygon fill="#B2B6BD" stroke="#788496" stroke-width="2.9993" stroke-miterlimit="10" points="286.283,168.103 248.263,167.978 
	249.141,162.106 192.502,162.107 199.787,159.461 254.853,159.406 281.97,153.73 317.49,153.839 317.628,159.425 364.447,159.465 
	359.553,162.111 311.72,162.104 "/>
<polyline fill="#B2B6BD" stroke="#788496" stroke-width="2.9993" stroke-miterlimit="10" points="360.249,159.406 384.482,153.732 
	420.052,153.833 423.033,159.422 469.87,159.464 466.322,162.111 418.502,162.104 396.104,168.099 358.028,167.978 355.918,162.106 
	"/>
<polyline fill="#B2B6BD" stroke="#788496" stroke-width="2.9993" stroke-miterlimit="10" points="467.122,159.406 488.427,153.73 
	524.053,153.838 529.912,159.425 576.776,159.464 574.598,162.111 526.766,162.104 507.472,168.103 469.327,167.978 
	464.177,162.106 "/>
<polyline fill="#B2B6BD" stroke="#788496" stroke-width="2.9993" stroke-miterlimit="10" points="579.462,159.406 601.594,153.73 
	653.901,153.838 654.3,159.425 701.126,159.464 696.344,162.111 648.526,162.104 623.369,168.103 580.405,167.978 576.127,162.106 
	"/>
<polyline fill="#B2B6BD" stroke="#788496" stroke-width="2.9993" stroke-miterlimit="10" points="702.434,159.477 726.361,153.797 
	761.946,153.907 765.237,159.495 760.845,162.175 738.788,168.175 700.683,168.052 698.246,162.177 "/>
<polygon fill="#DDDAC3" stroke="#788496" stroke-width="2.9993" stroke-miterlimit="10" points="199.646,180.552 159.487,180.415 
	162.964,173.856 170.163,170.85 201.181,164.539 238.569,164.658 236.402,170.871 285.79,170.912 279.563,173.861 229.058,173.854 
	"/>
<polyline fill="#DDDAC3" stroke="#788496" stroke-width="2.9993" stroke-miterlimit="10" points="283.377,170.85 311.126,164.539 
	348.568,164.654 349.625,170.871 399.037,170.912 394.337,173.861 343.83,173.854 317.892,180.552 277.659,180.415 277.739,173.856 
	"/>
<polyline fill="#DDDAC3" stroke="#788496" stroke-width="2.9993" stroke-miterlimit="10" points="396.152,170.847 420.645,164.538 
	458.161,164.658 462.416,170.871 511.854,170.912 508.673,173.861 458.161,173.854 435.684,180.557 395.38,180.415 392.069,173.856 
	"/>
<polyline fill="#DDDAC3" stroke="#788496" stroke-width="2.9993" stroke-miterlimit="10" points="508.938,170.85 530.171,164.539 
	567.74,164.658 575.21,170.871 627.18,170.912 623.058,173.861 572.493,173.854 553.475,180.552 513.105,180.415 506.412,173.856 
	"/>
<polyline fill="#DDDAC3" stroke="#788496" stroke-width="2.9993" stroke-miterlimit="10" points="626.151,170.927 653.569,164.614 
	691.038,164.729 692.432,170.948 747.835,170.995 743.385,173.941 686.797,173.934 661.21,180.636 620.962,180.498 620.688,173.935 
	"/>
<polygon fill="#B2B6BD" stroke="#788496" stroke-width="2.9993" stroke-miterlimit="10" points="230.128,194.424 187.512,194.27 
	190.334,186.902 127.004,186.904 136.066,183.598 197.553,183.531 229.483,176.477 268.992,176.613 267.644,183.557 
	319.913,183.605 313.799,186.907 260.317,186.898 "/>
<polyline fill="#B2B6BD" stroke="#788496" stroke-width="2.9993" stroke-miterlimit="10" points="315.233,183.531 343.581,176.479 
	383.15,176.613 385.335,183.557 437.629,183.609 433.196,186.904 379.716,186.898 353.358,194.424 310.653,194.27 309.737,186.902 
	"/>
<polyline fill="#B2B6BD" stroke="#788496" stroke-width="2.9993" stroke-miterlimit="10" points="434.568,183.535 459.262,176.479 
	498.908,176.615 504.679,183.552 556.994,183.605 554.271,186.907 500.781,186.898 478.311,194.423 435.53,194.273 430.806,186.902 
	"/>
<polyline fill="#B2B6BD" stroke="#788496" stroke-width="2.9993" stroke-miterlimit="10" points="547.521,183.531 573.253,176.479 
	612.886,176.613 617.631,183.557 661.896,183.605 655.957,186.907 613.244,186.898 589.653,194.423 546.907,194.27 543.271,186.902 
	"/>
<polyline fill="#B2B6BD" stroke="#788496" stroke-width="2.9993" stroke-miterlimit="10" points="658.721,183.617 686.684,176.56 
	726.288,176.691 728.836,183.641 723.401,186.986 697.441,194.516 654.722,194.361 653.394,186.992 "/>
<polygon fill="#DDDAC3" stroke="#788496" stroke-width="2.9993" stroke-miterlimit="10" points="128.571,210.211 83.24,210.029 
	89.629,201.693 98.834,197.891 135.869,189.947 177.694,190.098 173.26,197.914 228.75,197.973 220.867,201.697 164.019,201.689 "/>
<polyline fill="#DDDAC3" stroke="#788496" stroke-width="2.9993" stroke-miterlimit="10" points="226.056,197.891 258.983,189.947 
	300.881,190.098 300.499,197.914 356.023,197.973 350.072,201.697 293.215,201.689 260.181,211.211 216.758,212.029 
	218.826,201.693 "/>
<polyline fill="#DDDAC3" stroke="#788496" stroke-width="2.9993" stroke-miterlimit="10" points="352.798,197.891 381.617,189.947 
	423.601,190.096 427.247,197.914 482.802,197.973 478.773,201.693 421.92,201.693 394.281,212.211 344.768,212.029 347.53,201.693 
	"/>
<polyline fill="#DDDAC3" stroke="#788496" stroke-width="3" stroke-miterlimit="10" points="479.539,197.891 504.26,189.945 
	546.315,190.098 554.001,197.914 609.584,197.973 607.476,201.697 550.621,201.689 528.382,212.211 475.777,212.029 476.23,201.693 
	"/>
<polyline fill="#DDDAC3" stroke="#788496" stroke-width="2.9993" stroke-miterlimit="10" points="590.263,197.986 616.171,190.039 
	644.713,190.189 644.746,198.016 707.025,198.066 701.378,201.802 637.68,201.79 619.1,212.316 591.727,212.141 586.402,201.796 "/>
<polyline fill="#DDDAC3" stroke="#788496" stroke-width="2.9993" stroke-miterlimit="10" points="416.073,133.562 396.75,138.021 
	363.971,137.931 362.011,133.568 "/>
<path fill="#DDDAC3" stroke="#788496" stroke-width="2.9993" stroke-miterlimit="10" d="M457.399,133.568"/>
<polyline fill="#DDDAC3" stroke="#788496" stroke-width="2.9993" stroke-miterlimit="10" points="509.604,133.562 492.578,138.021 
	459.76,137.931 455.542,133.565 "/>
<path fill="#DDDAC3" stroke="#788496" stroke-width="2.9993" stroke-miterlimit="10" d="M550.928,133.568"/>
<polyline fill="#DDDAC3" stroke="#788496" stroke-width="2.9993" stroke-miterlimit="10" points="603.134,133.562 588.423,138.021 
	555.546,137.932 549.071,133.565 "/>
<path fill="#DDDAC3" stroke="#788496" stroke-width="2.9993" stroke-miterlimit="10" d="M677.985,133.568"/>
<polyline fill="#DDDAC3" stroke="#788496" stroke-width="2.9993" stroke-miterlimit="10" points="744.373,133.617 725.29,138.079 
	692.492,137.989 681.957,133.62 "/>
<path fill="#DDDAC3" stroke="#788496" stroke-width="2.9993" stroke-miterlimit="10" d="M798.195,133.623"/>
<path fill="#B2B6BD" stroke="#788496" stroke-width="2.9993" stroke-miterlimit="10" d="M397.23,214.242"/>
<path fill="#B2B6BD" stroke="#788496" stroke-width="2.9993" stroke-miterlimit="10" d="M532.415,214.241"/>
<path fill="#B2B6BD" stroke="#788496" stroke-width="2.9993" stroke-miterlimit="10" d="M607.383,214.241"/>
<polyline fill="#B2B6BD" stroke="#788496" stroke-width="2.9993" stroke-miterlimit="10" points="531.824,218.146 532.211,214.076 
	551.436,205.136 583.72,205.305 585.744,212.883 585.578,218.175 "/>
<polyline fill="#B2B6BD" stroke="#788496" stroke-width="3" stroke-miterlimit="10" points="625.098,218.255 625.04,213.621 
	639.274,205.242 687.912,205.414 681.59,213.885 681.256,218.288 "/>
<polyline fill="#B2B6BD" stroke="#788496" stroke-width="3" stroke-miterlimit="10" points="134.81,217.811 135.444,213.262 
	162.318,204.827 210.777,204.995 202.733,213.884 203.077,217.846 "/>
<polyline fill="#DDDAC3" stroke="#788496" stroke-width="2.9993" stroke-miterlimit="10" points="322.729,133.562 301.104,138.021 
	268.376,137.932 268.663,133.565 "/>
<g>
	<path fill="#78705C" d="M216.063,137.448c-1.436,0.649-2.873,0.958-4.31,1.168c-1.438,0.176-2.873,0.315-4.31,0.095
		c-1.438-0.223-2.874-0.777-4.312-0.881c-1.437-0.123-2.873,0.063-4.31,0.387c-1.437,0.337-2.873,0.591-4.31,0.686
		c-1.438,0.125-2.873,0.265-4.313,0.211c-2.873-0.152-5.746-0.565-8.621-1.666v-0.344c2.874-1.102,5.75-1.515,8.621-1.666
		c1.438-0.055,2.874,0.085,4.313,0.212c1.437,0.093,2.873,0.346,4.31,0.685c1.436,0.323,2.871,0.511,4.31,0.388
		c1.438-0.104,2.873-0.657,4.312-0.881c1.438-0.22,2.873-0.08,4.31,0.095c1.437,0.21,2.874,0.52,4.31,1.168V137.448z"/>
</g>
<g>
	<path fill="#78705C" d="M206.524,141.22c-1.171,0.724-2.342,1.069-3.515,1.304c-1.172,0.195-2.343,0.351-3.515,0.106
		c-1.172-0.249-2.34-0.866-3.513-0.98c-1.171-0.138-2.343,0.071-3.515,0.431c-1.172,0.373-2.343,0.667-3.515,0.764
		c-1.17,0.147-2.342,0.298-3.514,0.236c-2.343-0.169-4.687-0.629-7.031-1.857v-0.384c2.342-1.229,4.686-1.688,7.028-1.858
		c1.168-0.062,2.342,0.089,3.513,0.235c1.172,0.096,2.344,0.391,3.515,0.762c1.171,0.36,2.341,0.569,3.513,0.433
		c1.172-0.117,2.343-0.733,3.513-0.982c1.173-0.246,2.343-0.088,3.515,0.106c1.172,0.235,2.341,0.579,3.514,1.302v0.383h0.007
		V141.22z"/>
</g>
<g>
	<path fill="#78705C" d="M197.615,144.266c-1.202,0.762-2.402,1.124-3.604,1.371c-1.203,0.206-2.402,0.37-3.604,0.112
		c-1.202-0.262-2.402-0.913-3.604-1.033c-1.201-0.145-2.402,0.076-3.603,0.454c-1.202,0.392-2.403,0.702-3.604,0.804
		c-1.201,0.156-2.404,0.313-3.604,0.25c-2.403-0.182-4.805-0.664-7.208-1.958v-0.405c2.403-1.294,4.805-1.777,7.208-1.958
		c1.2-0.062,2.403,0.094,3.604,0.251c1.201,0.101,2.402,0.412,3.604,0.804c1.202,0.379,2.402,0.599,3.603,0.454
		c1.202-0.122,2.402-0.772,3.604-1.034c1.202-0.257,2.401-0.094,3.604,0.112c1.202,0.247,2.402,0.61,3.604,1.372V144.266
		L197.615,144.266z"/>
</g>
<g>
	<path fill="#78705C" d="M192.84,147.851c-1.284,0.459-2.568,0.656-3.856,0.814c-1.284,0.121-2.568,0.22-3.854,0.066
		c-1.284-0.156-2.569-0.542-3.854-0.613c-1.284-0.085-2.568,0.045-3.856,0.269c-1.284,0.236-2.568,0.413-3.854,0.478
		c-1.284,0.088-2.569,0.185-3.854,0.146c-2.569-0.113-5.139-0.389-7.709-1.162v-0.241c2.568-0.773,5.138-1.047,7.709-1.162
		c1.285-0.037,2.568,0.059,3.854,0.147c1.284,0.065,2.57,0.242,3.854,0.477c1.284,0.224,2.571,0.356,3.856,0.27
		c1.285-0.072,2.57-0.459,3.854-0.614c1.286-0.153,2.568-0.056,3.854,0.067c1.285,0.159,2.569,0.354,3.856,0.814V147.851z"/>
</g>
<g>
	<path fill="#78705C" d="M184.594,151.454c-1.361,0.678-2.721,1-4.08,1.222c-1.359,0.182-2.721,0.329-4.081,0.1
		c-1.362-0.233-2.721-0.812-4.08-0.921c-1.364-0.127-2.722,0.066-4.084,0.405c-1.359,0.349-2.721,0.625-4.082,0.715
		c-1.359,0.14-2.72,0.281-4.08,0.222c-2.72-0.159-5.442-0.591-8.164-1.742v-0.361c2.721-1.151,5.444-1.583,8.164-1.742
		c1.362-0.059,2.721,0.083,4.08,0.222c1.364,0.09,2.723,0.366,4.082,0.716c1.362,0.337,2.72,0.533,4.084,0.405
		c1.358-0.109,2.72-0.687,4.08-0.921c1.359-0.229,2.722-0.083,4.081,0.1c1.359,0.22,2.719,0.543,4.08,1.222V151.454z"/>
</g>
<g>
	<path fill="#78705C" d="M172.387,155.443c-1.425,0.679-2.852,1.001-4.276,1.222c-1.425,0.183-2.852,0.33-4.277,0.1
		c-1.425-0.233-2.852-0.812-4.276-0.92c-1.425-0.13-2.853,0.066-4.278,0.404c-1.425,0.35-2.852,0.626-4.277,0.716
		c-1.426,0.139-2.853,0.28-4.277,0.222c-2.853-0.16-5.703-0.59-8.552-1.742v-0.361c2.852-1.151,5.701-1.583,8.552-1.742
		c1.427-0.058,2.853,0.083,4.277,0.221c1.425,0.091,2.852,0.367,4.277,0.715c1.427,0.338,2.854,0.534,4.278,0.406
		c1.426-0.11,2.852-0.688,4.276-0.921c1.427-0.229,2.853-0.083,4.277,0.1c1.427,0.221,2.853,0.544,4.276,1.223V155.443z"/>
</g>
<g>
	<path fill="#78705C" d="M166.237,160.492c-1.368,0.679-2.735,1.001-4.104,1.222c-1.369,0.183-2.734,0.33-4.104,0.1
		c-1.366-0.233-2.735-0.812-4.103-0.921c-1.367-0.128-2.734,0.066-4.103,0.405c-1.368,0.349-2.737,0.625-4.103,0.716
		c-1.37,0.138-2.738,0.28-4.104,0.221c-2.737-0.16-5.473-0.59-8.207-1.742v-0.361c2.734-1.151,5.47-1.583,8.207-1.741
		c1.366-0.06,2.734,0.082,4.104,0.221c1.366,0.091,2.735,0.366,4.103,0.715c1.368,0.337,2.735,0.533,4.103,0.406
		c1.368-0.11,2.737-0.688,4.103-0.921c1.37-0.229,2.737-0.082,4.104,0.1c1.37,0.22,2.737,0.543,4.104,1.222V160.492z"/>
</g>
<g>
	<path fill="#78705C" d="M156.814,163.891c-1.455,0.678-2.91,1.001-4.368,1.223c-1.455,0.182-2.909,0.329-4.367,0.1
		c-1.456-0.233-2.911-0.812-4.37-0.921c-1.454-0.127-2.911,0.066-4.366,0.406c-1.457,0.349-2.913,0.625-4.368,0.715
		c-1.458,0.139-2.912,0.279-4.369,0.221c-2.91-0.16-5.823-0.59-8.733-1.742v-0.361c2.911-1.152,5.823-1.583,8.733-1.742
		c1.455-0.059,2.91,0.083,4.369,0.222c1.454,0.09,2.909,0.366,4.368,0.716c1.455,0.337,2.912,0.533,4.366,0.404
		c1.456-0.109,2.911-0.687,4.37-0.92c1.456-0.229,2.911-0.083,4.367,0.1c1.457,0.22,2.912,0.543,4.368,1.222V163.891z"/>
</g>
<g>
	<path fill="#78705C" d="M145.75,167.877c-1.415,0.679-2.833,1.001-4.249,1.223c-1.416,0.183-2.834,0.329-4.25,0.099
		c-1.416-0.234-2.832-0.812-4.25-0.921c-1.414-0.128-2.83,0.067-4.249,0.405c-1.414,0.35-2.83,0.625-4.249,0.716
		c-1.416,0.137-2.832,0.28-4.25,0.221c-2.834-0.16-5.667-0.59-8.498-1.742v-0.36c2.832-1.152,5.664-1.583,8.498-1.742
		c1.416-0.059,2.835,0.082,4.25,0.221c1.416,0.091,2.833,0.367,4.249,0.716c1.416,0.337,2.833,0.533,4.249,0.405
		c1.418-0.108,2.834-0.688,4.25-0.919c1.418-0.229,2.834-0.083,4.25,0.1c1.417,0.22,2.833,0.544,4.249,1.222V167.877z"/>
</g>
<g>
	<path fill="#78705C" d="M117.545,180.636c-1.332,0.679-2.662,1.001-3.994,1.222c-1.332,0.184-2.661,0.33-3.994,0.101
		c-1.331-0.231-2.663-0.812-3.992-0.921c-1.332-0.128-2.665,0.066-3.994,0.404c-1.334,0.351-2.664,0.625-3.992,0.716
		c-1.334,0.139-2.665,0.28-3.994,0.223c-2.663-0.159-5.329-0.592-7.989-1.741v-0.362c2.663-1.151,5.326-1.584,7.989-1.742
		c1.329-0.059,2.663,0.083,3.994,0.222c1.329,0.091,2.661,0.366,3.992,0.716c1.331,0.337,2.662,0.533,3.994,0.404
		c1.332-0.109,2.662-0.688,3.992-0.92c1.333-0.229,2.662-0.084,3.994,0.1c1.332,0.221,2.662,0.543,3.994,1.223V180.636z"/>
</g>
<g>
	<path fill="#78705C" d="M106.881,184.891c-1.27,0.678-2.537,1-3.809,1.223c-1.268,0.183-2.536,0.328-3.808,0.1
		c-1.269-0.232-2.537-0.813-3.808-0.922c-1.268-0.128-2.538,0.066-3.808,0.406c-1.267,0.349-2.54,0.625-3.809,0.716
		c-1.27,0.14-2.539,0.278-3.809,0.221c-2.537-0.159-5.078-0.592-7.615-1.741v-0.361c2.538-1.151,5.078-1.582,7.615-1.742
		c1.27-0.059,2.54,0.084,3.809,0.223c1.269,0.09,2.539,0.365,3.809,0.715c1.27,0.338,2.541,0.533,3.808,0.405
		c1.271-0.108,2.54-0.688,3.808-0.921c1.271-0.229,2.54-0.083,3.808,0.1c1.271,0.222,2.539,0.543,3.809,1.224V184.891z"/>
</g>
<g>
	<path fill="#78705C" d="M89.163,192.457c-1.642,0.679-3.281,1.001-4.924,1.223c-1.641,0.182-3.281,0.328-4.922,0.102
		c-1.642-0.234-3.284-0.813-4.924-0.922c-1.641-0.129-3.281,0.064-4.923,0.404c-1.641,0.352-3.281,0.627-4.922,0.717
		c-1.641,0.139-3.284,0.279-4.924,0.22c-3.281-0.158-6.565-0.589-9.846-1.741V192.1c3.281-1.15,6.565-1.584,9.846-1.742
		c1.641-0.06,3.282,0.082,4.924,0.221c1.641,0.091,3.281,0.367,4.922,0.716c1.643,0.339,3.282,0.534,4.923,0.407
		c1.64-0.109,3.282-0.689,4.924-0.922c1.641-0.229,3.281-0.082,4.922,0.099c1.643,0.222,3.282,0.544,4.924,1.224V192.457z"/>
</g>
<g>
	<path fill="#78705C" d="M224.215,133.709c-1.133,0.678-2.271,1.001-3.405,1.222c-1.134,0.182-2.272,0.329-3.408,0.1
		c-1.133-0.233-2.271-0.813-3.404-0.921c-1.134-0.128-2.273,0.067-3.406,0.406c-1.134,0.348-2.271,0.625-3.406,0.716
		c-1.136,0.138-2.274,0.28-3.407,0.22c-2.272-0.159-4.544-0.59-6.812-1.741v-0.361c2.272-1.152,4.543-1.583,6.812-1.742
		c1.133-0.059,2.271,0.083,3.407,0.221c1.134,0.091,2.271,0.366,3.406,0.716c1.133,0.337,2.272,0.533,3.406,0.405
		c1.134-0.11,2.271-0.688,3.404-0.921c1.136-0.229,2.273-0.082,3.408,0.101c1.135,0.22,2.272,0.543,3.405,1.222V133.709z"/>
</g>
<g>
	<path fill="#78705C" d="M77,197.852c-1.695,0.681-3.392,1.002-5.086,1.225c-1.694,0.183-3.391,0.326-5.085,0.097
		c-1.695-0.233-3.391-0.809-5.086-0.919c-1.695-0.131-3.391,0.068-5.086,0.406c-1.693,0.349-3.39,0.624-5.086,0.716
		c-1.694,0.138-3.392,0.279-5.086,0.222c-3.389-0.158-6.781-0.592-10.172-1.744v-0.36c3.392-1.152,6.78-1.584,10.172-1.745
		c1.694-0.057,3.392,0.083,5.086,0.223c1.694,0.09,3.39,0.366,5.086,0.715c1.695,0.338,3.389,0.535,5.086,0.406
		c1.695-0.109,3.393-0.689,5.086-0.92c1.695-0.229,3.391-0.082,5.085,0.1c1.695,0.221,3.391,0.543,5.086,1.223V197.852z"/>
</g>
<g>
	<path fill="#78705C" d="M53.991,208.117c-1.48,0.682-2.963,1.002-4.447,1.223c-1.482,0.184-2.964,0.328-4.448,0.098
		c-1.481-0.231-2.964-0.811-4.449-0.916c-1.482-0.133-2.964,0.066-4.448,0.401c-1.483,0.351-2.966,0.627-4.447,0.718
		c-1.482,0.139-2.965,0.28-4.449,0.221c-2.966-0.158-5.932-0.59-8.896-1.743v-0.361c2.963-1.149,5.931-1.583,8.896-1.741
		c1.483-0.062,2.965,0.082,4.449,0.221c1.481,0.091,2.964,0.365,4.447,0.715c1.481,0.338,2.966,0.533,4.448,0.404
		c1.484-0.105,2.965-0.688,4.449-0.918c1.482-0.229,2.964-0.082,4.448,0.099c1.483,0.219,2.965,0.541,4.447,1.222V208.117z"/>
</g>
<g>
	<path fill="#78705C" d="M62.881,202.757c-1.34,0.681-2.679,1.002-4.018,1.22c-1.338,0.188-2.679,0.332-4.018,0.101
		c-1.338-0.233-2.679-0.81-4.018-0.918c-1.337-0.132-2.68,0.067-4.018,0.405c-1.338,0.351-2.679,0.627-4.017,0.716
		c-1.341,0.139-2.68,0.278-4.019,0.221c-2.68-0.158-5.359-0.588-8.036-1.743v-0.359c2.681-1.152,5.358-1.586,8.036-1.744
		c1.339-0.059,2.681,0.082,4.019,0.222c1.338,0.092,2.681,0.367,4.017,0.716c1.34,0.338,2.68,0.531,4.018,0.405
		c1.341-0.106,2.682-0.688,4.018-0.92c1.34-0.229,2.68-0.083,4.018,0.099c1.341,0.221,2.68,0.543,4.018,1.223V202.757z"/>
</g>
<g>
	<path fill="#78705C" d="M818.385,143.866c1.961-0.678,3.393-1.001,4.669-1.223c1.219-0.182,2.387-0.329,2.987-0.1
		c0.598,0.233,0.682,0.812,1.463,0.921c0.76,0.127,1.998-0.067,3.451-0.406c1.466-0.349,2.826-0.625,3.91-0.715
		c1.153-0.139,2.31-0.28,3.167-0.221c1.659,0.159,2.907,0.59,3.083,1.741l-0.536,0.361c-3.616,1.152-6.158,1.583-8.288,1.742
		c-1.033,0.059-1.771-0.083-2.511-0.221c-0.808-0.09-1.343-0.366-1.771-0.716c-0.44-0.337-1.098-0.533-2.237-0.404
		c-1.107,0.109-2.922,0.687-4.214,0.92c-1.293,0.229-2.016,0.083-2.69-0.1c-0.62-0.22-1.084-0.543-1.019-1.222L818.385,143.866z"/>
</g>
<g>
	<path fill="#78705C" d="M810.186,149.76c2.306-0.679,4.07-1.001,5.691-1.222c1.559-0.183,3.061-0.33,4.01-0.1
		c0.938,0.232,1.356,0.812,2.482,0.92c1.097,0.128,2.67-0.066,4.462-0.405c1.81-0.35,3.509-0.625,4.933-0.716
		c1.492-0.138,2.985-0.28,4.188-0.221c2.333,0.16,4.267,0.59,5.112,1.742l-0.537,0.361c-4.288,1.151-7.513,1.583-10.318,1.741
		c-1.375,0.059-2.447-0.082-3.528-0.221c-1.15-0.09-2.025-0.366-2.793-0.715c-0.781-0.337-1.774-0.533-3.253-0.405
		c-1.449,0.109-3.601,0.688-5.238,0.921c-1.627,0.229-2.69,0.082-3.707-0.1c-0.962-0.221-1.761-0.544-2.035-1.223L810.186,149.76z"
		/>
</g>
<g>
	<path fill="#78705C" d="M797.908,159.199c2.449-0.679,4.359-1.002,6.12-1.223c1.705-0.182,3.353-0.329,4.438-0.1
		c1.086,0.233,1.653,0.812,2.92,0.92c1.242,0.128,2.963-0.066,4.898-0.405c1.955-0.35,3.794-0.625,5.363-0.716
		c1.638-0.139,3.279-0.28,4.624-0.221c2.618,0.16,4.839,0.59,5.982,1.741l-0.542,0.362c-4.581,1.152-8.089,1.583-11.184,1.742
		c-1.521,0.059-2.74-0.082-3.967-0.221c-1.295-0.091-2.313-0.367-3.224-0.716c-0.93-0.337-2.063-0.533-3.688-0.405
		c-1.596,0.109-3.889,0.688-5.668,0.921c-1.772,0.229-2.983,0.083-4.146-0.1c-1.101-0.22-2.047-0.544-2.465-1.223L797.908,159.199z"
		/>
</g>
<g>
	<path fill="#78705C" d="M797.285,161.532c2.392-0.678,4.247-1,5.955-1.222c1.647-0.183,3.242-0.33,4.277-0.1
		c1.028,0.232,1.541,0.812,2.754,0.92c1.185,0.128,2.854-0.066,4.733-0.404c1.897-0.35,3.69-0.626,5.202-0.716
		c1.579-0.139,3.166-0.28,4.455-0.222c2.515,0.16,4.627,0.59,5.663,1.742l-0.543,0.361c-4.472,1.151-7.873,1.583-10.861,1.742
		c-1.463,0.058-2.629-0.083-3.798-0.222c-1.243-0.09-2.209-0.366-3.063-0.715c-0.87-0.337-1.957-0.533-3.521-0.405
		c-1.541,0.109-3.778,0.688-5.503,0.921c-1.723,0.229-2.876,0.083-3.983-0.099c-1.049-0.221-1.938-0.544-2.304-1.223
		L797.285,161.532z"/>
</g>
<g>
	<path fill="#78705C" d="M787.195,164.773c2.473-0.678,4.414-1.001,6.199-1.223c1.73-0.182,3.406-0.328,4.52-0.1
		c1.11,0.233,1.706,0.812,3.001,0.921c1.269,0.128,3.013-0.067,4.979-0.405c1.978-0.349,3.846-0.625,5.44-0.716
		c1.661-0.138,3.333-0.279,4.7-0.22c2.678,0.16,4.945,0.59,6.142,1.741l-0.537,0.361c-4.635,1.152-8.196,1.583-11.345,1.742
		c-1.546,0.059-2.791-0.083-4.044-0.221c-1.325-0.09-2.365-0.367-3.306-0.716c-0.955-0.337-2.113-0.533-3.767-0.405
		c-1.621,0.109-3.941,0.688-5.751,0.92c-1.797,0.229-3.035,0.083-4.222-0.1c-1.127-0.22-2.104-0.543-2.549-1.222L787.195,164.773z"
		/>
</g>
<g>
	<path fill="#78705C" d="M783.487,167.769c2.431-0.678,4.327-1,6.081-1.222c1.688-0.182,3.321-0.329,4.399-0.099
		c1.07,0.232,1.621,0.812,2.879,0.92c1.227,0.127,2.935-0.066,4.857-0.405c1.938-0.349,3.767-0.625,5.323-0.716
		c1.625-0.139,3.254-0.28,4.585-0.221c2.595,0.16,4.79,0.59,5.903,1.742l-0.539,0.361c-4.554,1.151-8.039,1.583-11.105,1.742
		c-1.511,0.058-2.717-0.083-3.926-0.222c-1.285-0.09-2.291-0.366-3.186-0.716c-0.917-0.337-2.039-0.533-3.646-0.405
		c-1.583,0.109-3.863,0.688-5.632,0.921c-1.762,0.229-2.955,0.083-4.105-0.1c-1.09-0.22-2.021-0.543-2.426-1.223L783.487,167.769z"
		/>
</g>
<g>
	<path fill="#78705C" d="M780.096,170.147c2.534-0.679,4.537-1.001,6.389-1.222c1.795-0.183,3.533-0.33,4.714-0.1
		c1.173,0.233,1.832,0.812,3.187,0.92c1.329,0.128,3.146-0.066,5.17-0.405c2.039-0.35,3.977-0.625,5.633-0.716
		c1.728-0.138,3.461-0.28,4.896-0.221c2.805,0.16,5.205,0.59,6.525,1.742l-0.542,0.361c-4.762,1.151-8.447,1.584-11.729,1.743
		c-1.607,0.058-2.917-0.083-4.233-0.221c-1.385-0.091-2.491-0.367-3.49-0.716c-1.021-0.337-2.247-0.533-3.958-0.406
		c-1.686,0.109-4.071,0.688-5.942,0.92c-1.861,0.23-3.165,0.083-4.409-0.1c-1.194-0.22-2.233-0.543-2.744-1.222L780.096,170.147z"/>
</g>
<g>
	<path fill="#78705C" d="M770.461,178.117c2.34-0.678,4.146-1,5.8-1.223c1.598-0.182,3.14-0.328,4.124-0.1
		c0.975,0.234,1.438,0.812,2.6,0.922c1.134,0.127,2.747-0.067,4.576-0.406c1.851-0.35,3.581-0.625,5.044-0.715
		c1.536-0.139,3.07-0.28,4.31-0.222c2.408,0.16,4.417,0.591,5.348,1.742l-0.542,0.361c-4.373,1.151-7.668,1.583-10.552,1.742
		c-1.417,0.059-2.523-0.083-3.644-0.222c-1.19-0.091-2.102-0.367-2.904-0.715c-0.823-0.338-1.854-0.533-3.367-0.406
		c-1.492,0.109-3.678,0.688-5.354,0.921c-1.667,0.229-2.77,0.083-3.824-0.1c-0.998-0.22-1.836-0.544-2.149-1.222L770.461,178.117z"
		/>
</g>
<g>
	<path fill="#78705C" d="M760.407,184.748c2.278-0.68,4.024-1.002,5.621-1.223c1.533-0.184,3.019-0.33,3.938-0.101
		c0.917,0.232,1.326,0.812,2.422,0.92c1.073,0.13,2.628-0.065,4.398-0.403c1.785-0.351,3.465-0.625,4.862-0.717
		c1.473-0.14,2.949-0.279,4.127-0.222c2.287,0.16,4.179,0.59,4.99,1.742l-0.543,0.36c-4.248,1.151-7.426,1.584-10.188,1.742
		c-1.354,0.059-2.41-0.082-3.464-0.222c-1.131-0.091-1.982-0.367-2.727-0.716c-0.762-0.338-1.731-0.533-3.19-0.405
		c-1.425,0.11-3.556,0.688-5.167,0.921c-1.608,0.229-2.653,0.082-3.646-0.1c-0.935-0.219-1.711-0.544-1.964-1.223L760.407,184.748z"
		/>
</g>
<g>
	<path fill="#78705C" d="M753.908,191.212c2.676-0.679,4.814-1.001,6.812-1.223c1.931-0.183,3.814-0.329,5.136-0.101
		c1.312,0.232,2.108,0.812,3.605,0.922c1.472,0.127,3.425-0.066,5.593-0.406c2.184-0.348,4.257-0.625,6.052-0.715
		c1.867-0.14,3.744-0.279,5.315-0.223c3.086,0.16,5.765,0.592,7.367,1.74l-0.54,0.361c-5.047,1.151-9.01,1.584-12.568,1.742
		c-1.753,0.061-3.2-0.082-4.655-0.222c-1.526-0.089-2.776-0.364-3.916-0.716c-1.157-0.336-2.528-0.532-4.382-0.403
		c-1.824,0.109-4.349,0.688-6.355,0.919c-2.005,0.229-3.451,0.084-4.842-0.1c-1.331-0.221-2.509-0.544-3.158-1.223L753.908,191.212z
		"/>
</g>
<g>
	<path fill="#78705C" d="M822.391,138.689c2.153-0.678,3.77-1.001,5.238-1.222c1.41-0.183,2.766-0.329,3.559-0.101
		c0.789,0.234,1.063,0.812,2.038,0.921c0.942,0.129,2.373-0.067,4.017-0.405c1.659-0.35,3.211-0.625,4.48-0.716
		c1.344-0.139,2.691-0.28,3.741-0.221c2.036,0.16,3.669,0.59,4.219,1.741l-0.536,0.361c-3.991,1.152-6.912,1.583-9.423,1.742
		c-1.223,0.059-2.153-0.083-3.081-0.221c-1.003-0.091-1.725-0.367-2.346-0.716c-0.631-0.337-1.477-0.533-2.803-0.406
		c-1.302,0.109-3.306,0.688-4.79,0.921c-1.479,0.23-2.397,0.083-3.263-0.1c-0.81-0.22-1.462-0.544-1.585-1.222L822.391,138.689z"/>
</g>
<g>
	<path fill="#78705C" d="M818.234,141.144c2.332-0.678,4.135-1.001,5.781-1.222c1.591-0.182,3.128-0.329,4.103-0.1
		c0.97,0.233,1.427,0.812,2.58,0.921c1.124,0.127,2.734-0.066,4.562-0.406c1.839-0.349,3.57-0.625,5.019-0.715
		c1.531-0.14,3.062-0.28,4.287-0.221c2.4,0.16,4.394,0.59,5.313,1.741l-0.54,0.361c-4.357,1.152-7.641,1.583-10.511,1.742
		c-1.408,0.059-2.521-0.083-3.629-0.221c-1.186-0.09-2.09-0.367-2.888-0.716c-0.814-0.337-1.842-0.533-3.348-0.405
		c-1.479,0.109-3.667,0.687-5.333,0.92c-1.66,0.229-2.758,0.083-3.807-0.1c-0.989-0.22-1.82-0.543-2.125-1.222L818.234,141.144z"/>
</g>
<g>
	<path fill="#78705C" d="M814.37,146.444c2.226-0.678,3.92-1.001,5.458-1.222c1.484-0.183,2.915-0.33,3.782-0.1
		c0.864,0.232,1.209,0.812,2.257,0.92c1.021,0.127,2.517-0.067,4.236-0.405c1.729-0.349,3.352-0.625,4.698-0.716
		c1.416-0.139,2.836-0.28,3.96-0.221c2.183,0.16,3.96,0.591,4.661,1.742l-0.541,0.361c-4.143,1.152-7.208,1.584-9.864,1.742
		c-1.297,0.059-2.296-0.082-3.303-0.221c-1.073-0.091-1.868-0.367-2.561-0.716c-0.709-0.337-1.624-0.533-3.026-0.405
		c-1.372,0.108-3.448,0.688-5.004,0.921c-1.553,0.229-2.549,0.082-3.483-0.101c-0.88-0.22-1.611-0.543-1.805-1.222L814.37,146.444z"
		/>
</g>
<g>
	<path fill="#78705C" d="M805.619,152.804c2.104-0.678,3.678-1.001,5.095-1.223c1.364-0.182,2.673-0.33,3.421-0.1
		c0.74,0.233,0.969,0.812,1.896,0.921c0.897,0.127,2.278-0.067,3.874-0.406c1.612-0.349,3.114-0.625,4.339-0.716
		c1.299-0.139,2.6-0.28,3.604-0.221c1.94,0.16,3.479,0.59,3.938,1.741l-0.541,0.361c-3.898,1.152-6.726,1.583-9.146,1.742
		c-1.174,0.059-2.052-0.083-2.938-0.221c-0.952-0.09-1.629-0.366-2.198-0.716c-0.589-0.337-1.387-0.533-2.665-0.404
		c-1.254,0.109-3.209,0.687-4.647,0.92c-1.434,0.229-2.306,0.083-3.123-0.1c-0.756-0.22-1.37-0.543-1.44-1.222L805.619,152.804z"/>
</g>
<g>
	<path fill="#78705C" d="M805.347,156.387c1.956-0.679,3.378-1.001,4.647-1.222c1.212-0.183,2.373-0.33,2.973-0.1
		c0.59,0.232,0.669,0.812,1.446,0.92c0.742,0.13,1.979-0.067,3.422-0.405c1.462-0.349,2.815-0.625,3.892-0.716
		c1.147-0.139,2.298-0.28,3.152-0.221c1.64,0.16,2.879,0.591,3.041,1.742l-0.539,0.361c-3.601,1.152-6.129,1.583-8.246,1.742
		c-1.024,0.059-1.758-0.082-2.487-0.221c-0.808-0.091-1.335-0.367-1.75-0.716c-0.441-0.337-1.09-0.533-2.222-0.405
		c-1.1,0.109-2.904,0.688-4.195,0.921c-1.28,0.229-2.005,0.083-2.667-0.101c-0.618-0.22-1.068-0.543-0.998-1.222L805.347,156.387z"
		/>
</g>
<g>
	<path fill="#78705C" d="M777.205,172.872c2.219-0.678,3.907-1.001,5.438-1.222c1.479-0.183,2.905-0.329,3.767-0.101
		c0.854,0.234,1.196,0.812,2.242,0.921c1.012,0.128,2.507-0.066,4.218-0.405c1.727-0.35,3.34-0.625,4.685-0.716
		c1.408-0.139,2.83-0.28,3.946-0.221c2.169,0.16,3.934,0.59,4.629,1.742l-0.542,0.362c-4.13,1.151-7.185,1.583-9.831,1.742
		c-1.293,0.058-2.291-0.083-3.289-0.222c-1.068-0.09-1.857-0.366-2.544-0.716c-0.701-0.337-1.609-0.533-3.01-0.405
		c-1.369,0.109-3.439,0.688-4.992,0.921c-1.545,0.229-2.529,0.082-3.463-0.1c-0.876-0.22-1.595-0.544-1.788-1.223L777.205,172.872z"
		/>
</g>
<g>
	<path fill="#78705C" d="M773.644,175.701c2.212-0.679,3.896-1.001,5.429-1.222c1.472-0.183,2.891-0.33,3.748-0.1
		c0.852,0.233,1.187,0.812,2.224,0.92c1.007,0.13,2.499-0.066,4.205-0.404c1.721-0.35,3.334-0.626,4.667-0.716
		c1.407-0.139,2.82-0.28,3.932-0.222c2.156,0.16,3.92,0.59,4.597,1.742l-0.536,0.361c-4.122,1.152-7.168,1.584-9.805,1.742
		c-1.287,0.059-2.271-0.082-3.271-0.221c-1.063-0.092-1.85-0.367-2.53-0.716c-0.692-0.337-1.603-0.533-2.992-0.405
		c-1.362,0.109-3.432,0.688-4.977,0.921c-1.539,0.229-2.521,0.082-3.449-0.1c-0.876-0.221-1.59-0.544-1.775-1.223L773.644,175.701z"
		/>
</g>
<g>
	<path fill="#78705C" d="M764.385,181.855c2.26-0.679,3.992-1,5.573-1.223c1.522-0.183,2.987-0.329,3.896-0.1
		c0.904,0.232,1.284,0.812,2.375,0.921c1.056,0.129,2.597-0.065,4.35-0.404c1.775-0.35,3.433-0.626,4.815-0.717
		c1.46-0.139,2.915-0.279,4.082-0.221c2.26,0.16,4.11,0.59,4.893,1.742l-0.539,0.361c-4.219,1.15-7.357,1.582-10.094,1.742
		c-1.345,0.059-2.378-0.084-3.419-0.223c-1.119-0.09-1.952-0.365-2.685-0.715c-0.743-0.338-1.698-0.533-3.144-0.405
		c-1.409,0.108-3.522,0.688-5.121,0.921c-1.594,0.229-2.621,0.083-3.601-0.1c-0.917-0.222-1.683-0.545-1.917-1.224L764.385,181.855z
		"/>
</g>
<g>
	<path fill="#78705C" d="M757.485,187.793c2.394-0.678,4.245-1,5.954-1.221c1.646-0.184,3.239-0.33,4.271-0.1
		c1.03,0.231,1.541,0.811,2.752,0.92c1.188,0.127,2.854-0.065,4.732-0.404c1.894-0.35,3.683-0.625,5.193-0.717
		c1.584-0.14,3.17-0.279,4.458-0.222c2.513,0.16,4.623,0.591,5.65,1.741l-0.538,0.361c-4.472,1.152-7.869,1.584-10.856,1.742
		c-1.462,0.059-2.629-0.082-3.798-0.222c-1.237-0.091-2.2-0.366-3.056-0.716c-0.869-0.338-1.955-0.533-3.52-0.404
		c-1.543,0.109-3.781,0.688-5.506,0.92c-1.717,0.229-2.868,0.084-3.976-0.1c-1.043-0.221-1.94-0.543-2.3-1.223L757.485,187.793z"/>
</g>
<g>
	<path fill="#78705C" d="M739.969,200.934c2.373-0.682,4.216-1.002,5.907-1.223c1.627-0.186,3.206-0.329,4.22-0.1
		c1.009,0.232,1.506,0.81,2.7,0.918c1.167,0.131,2.818-0.065,4.685-0.404c1.875-0.35,3.65-0.625,5.146-0.717
		c1.564-0.137,3.133-0.278,4.406-0.221c2.476,0.158,4.551,0.592,5.542,1.746l-0.534,0.359c-4.439,1.15-7.8,1.582-10.757,1.743
		c-1.442,0.058-2.592-0.082-3.745-0.222c-1.224-0.09-2.17-0.366-3.009-0.717c-0.854-0.338-1.918-0.533-3.467-0.404
		c-1.521,0.108-3.75,0.688-5.448,0.918c-1.705,0.23-2.843,0.084-3.929-0.1c-1.034-0.218-1.908-0.541-2.252-1.22L739.969,200.934z"/>
</g>
<g>
	<path fill="#78705C" d="M730.697,207.102c2.511-0.683,4.488-1.002,6.311-1.223c1.769-0.184,3.482-0.329,4.633-0.1
		c1.15,0.232,1.778,0.812,3.108,0.918c1.305,0.132,3.099-0.067,5.094-0.402c2.02-0.352,3.924-0.627,5.554-0.716
		c1.702-0.14,3.409-0.282,4.811-0.222c2.759,0.158,5.102,0.59,6.375,1.744l-0.542,0.36c-4.709,1.149-8.342,1.582-11.572,1.741
		c-1.586,0.061-2.867-0.083-4.151-0.221c-1.362-0.09-2.447-0.365-3.42-0.715c-0.991-0.338-2.197-0.533-3.88-0.404
		c-1.652,0.105-4.016,0.687-5.86,0.916c-1.837,0.23-3.114,0.082-4.334-0.098c-1.165-0.219-2.184-0.541-2.662-1.221L730.697,207.102z
		"/>
</g>
<g>
	<path fill="#78705C" d="M750.866,194.998c2.306-0.68,4.082-1,5.703-1.223c1.566-0.184,3.081-0.33,4.029-0.101
		c0.944,0.234,1.376,0.81,2.507,0.921c1.103,0.129,2.688-0.064,4.482-0.404c1.816-0.351,3.521-0.627,4.946-0.717
		c1.5-0.138,3.007-0.279,4.213-0.22c2.346,0.158,4.292,0.588,5.158,1.741l-0.537,0.361c-4.308,1.148-7.54,1.584-10.364,1.742
		c-1.381,0.059-2.464-0.084-3.551-0.222c-1.159-0.092-2.035-0.367-2.807-0.716c-0.795-0.338-1.795-0.534-3.273-0.406
		c-1.457,0.108-3.617,0.688-5.256,0.919c-1.642,0.229-2.715,0.083-3.735-0.097c-0.963-0.223-1.77-0.544-2.052-1.225L750.866,194.998
		z"/>
</g>
<g>
	<path fill="#78705C" d="M742.244,198.007c2.361-0.68,4.184-1.002,5.854-1.223c1.621-0.183,3.18-0.328,4.177-0.097
		c0.998,0.231,1.473,0.811,2.658,0.918c1.147,0.129,2.786-0.068,4.635-0.407c1.865-0.349,3.618-0.624,5.099-0.716
		c1.548-0.139,3.099-0.278,4.355-0.223c2.451,0.159,4.492,0.592,5.453,1.746l-0.532,0.36c-4.413,1.153-7.739,1.583-10.665,1.743
		c-1.429,0.061-2.558-0.082-3.694-0.221c-1.211-0.092-2.137-0.367-2.962-0.716c-0.84-0.338-1.888-0.532-3.425-0.405
		c-1.507,0.107-3.711,0.688-5.402,0.92c-1.683,0.229-2.81,0.084-3.882-0.099c-1.012-0.222-1.873-0.542-2.199-1.224L742.244,198.007z
		"/>
</g>
<g>
	<path fill="#78705C" d="M736.367,203.605c2.368-0.684,4.195-1.002,5.875-1.224c1.623-0.184,3.193-0.329,4.199-0.1
		c0.998,0.235,1.488,0.813,2.678,0.919c1.157,0.131,2.806-0.068,4.656-0.404c1.87-0.35,3.634-0.626,5.117-0.716
		c1.56-0.138,3.121-0.28,4.383-0.222c2.464,0.158,4.521,0.59,5.499,1.744l-0.537,0.361c-4.419,1.148-7.768,1.583-10.71,1.743
		c-1.438,0.058-2.576-0.082-3.719-0.222c-1.216-0.092-2.153-0.367-2.98-0.717c-0.848-0.336-1.907-0.531-3.446-0.404
		c-1.509,0.107-3.729,0.688-5.421,0.919c-1.695,0.231-2.828,0.081-3.907-0.099c-1.022-0.22-1.892-0.543-2.227-1.222L736.367,203.605
		z"/>
</g>
<g>
	<path fill="#78705C" d="M726.276,210.15c2.427-0.68,4.316-1.002,6.053-1.223c1.683-0.186,3.312-0.33,4.377-0.1
		c1.06,0.234,1.604,0.811,2.848,0.92c1.22,0.13,2.925-0.068,4.834-0.406c1.93-0.349,3.752-0.625,5.296-0.716
		c1.617-0.14,3.234-0.278,4.558-0.222c2.583,0.158,4.753,0.591,5.849,1.744l-0.537,0.359c-4.542,1.151-8.003,1.585-11.058,1.746
		c-1.498,0.057-2.697-0.084-3.896-0.222c-1.277-0.091-2.273-0.367-3.161-0.716c-0.902-0.34-2.016-0.534-3.618-0.406
		c-1.568,0.109-3.844,0.689-5.601,0.92c-1.751,0.229-2.938,0.082-4.074-0.1c-1.085-0.22-2.013-0.543-2.405-1.224L726.276,210.15z"/>
</g>
<g>
	<path fill="#78705C" d="M721.046,214.059c2.399-0.68,4.354-1.002,6.183-1.221c1.779-0.182,3.515-0.33,4.776-0.098
		s2.085,0.811,3.503,0.917c1.389,0.132,3.187-0.067,5.16-0.403c1.987-0.35,3.887-0.626,5.551-0.716
		c1.726-0.142,3.453-0.281,4.93-0.222c2.904,0.158,5.463,0.591,7.127,1.742l-0.452,0.36c-4.546,1.151-8.188,1.583-11.487,1.745
		c-1.629,0.061-3.002-0.084-4.379-0.223c-1.438-0.09-2.646-0.364-3.756-0.715c-1.133-0.336-2.438-0.533-4.149-0.403
		c-2.508,0.157-1.694,0.403-5.807,0.917c-1.837,0.23-3.204,0.083-4.529-0.1c-1.275-0.22-2.422-0.539-3.122-1.223L721.046,214.059z"
		/>
</g>
<g>
	<path fill="#78705C" d="M136.863,171.209c-1.426,0.679-2.852,1.001-4.276,1.222c-1.427,0.183-2.853,0.33-4.277,0.101
		c-1.427-0.234-2.854-0.813-4.276-0.921c-1.426-0.128-2.854,0.066-4.277,0.405c-1.425,0.35-2.851,0.625-4.277,0.716
		c-1.425,0.139-2.852,0.279-4.274,0.221c-2.853-0.16-5.703-0.59-8.553-1.742v-0.361c2.854-1.151,5.702-1.583,8.553-1.742
		c1.424-0.059,2.851,0.082,4.274,0.221c1.427,0.091,2.853,0.367,4.277,0.716c1.427,0.337,2.853,0.533,4.277,0.405
		c1.425-0.109,2.852-0.688,4.276-0.92c1.426-0.23,2.852-0.083,4.277,0.1c1.425,0.22,2.851,0.543,4.276,1.222V171.209z"/>
</g>
<g>
	<path fill="#78705C" d="M100.318,188.029c-1.456,0.679-2.91,1.001-4.37,1.223c-1.454,0.184-2.911,0.329-4.368,0.1
		c-1.455-0.231-2.911-0.812-4.368-0.92c-1.455-0.127-2.911,0.066-4.369,0.404c-1.456,0.35-2.91,0.625-4.368,0.716
		c-1.454,0.14-2.91,0.279-4.368,0.222c-2.909-0.159-5.823-0.59-8.735-1.742v-0.36c2.912-1.151,5.826-1.584,8.735-1.741
		c1.454-0.06,2.912,0.082,4.368,0.221c1.457,0.092,2.911,0.365,4.368,0.717c1.455,0.336,2.911,0.531,4.369,0.404
		c1.454-0.108,2.91-0.688,4.368-0.922c1.456-0.229,2.911-0.082,4.368,0.102c1.455,0.22,2.911,0.543,4.37,1.223V188.029z"/>
</g>
<g>
	<path fill="#78705C" d="M127.314,175.415c-1.368,0.679-2.737,1.001-4.103,1.222c-1.368,0.182-2.734,0.328-4.105,0.1
		c-1.368-0.232-2.733-0.811-4.104-0.921c-1.367-0.128-2.733,0.067-4.102,0.405c-1.368,0.35-2.735,0.625-4.104,0.716
		c-1.366,0.139-2.735,0.28-4.103,0.221c-2.735-0.159-5.469-0.59-8.206-1.741v-0.361c2.737-1.152,5.471-1.583,8.206-1.742
		c1.368-0.059,2.734,0.083,4.103,0.221c1.37,0.091,2.734,0.367,4.104,0.716c1.368,0.337,2.734,0.533,4.102,0.405
		c1.37-0.109,2.736-0.688,4.104-0.92c1.368-0.229,2.736-0.083,4.105,0.1c1.366,0.22,2.735,0.543,4.103,1.222V175.415z"/>
</g>
<g>
	<path fill="#78705C" d="M47.374,213.251c-1.329,0.963-2.66,1.417-3.991,1.728c-1.329,0.263-2.663,0.467-3.993,0.141
		c-0.462-0.113-1.667-1.03-3.99-1.299c-1.331-0.186-2.662,0.096-3.996,0.574c-1.329,0.49-2.66,0.881-3.989,1.012
		c-1.329,0.195-2.661,0.394-3.99,0.312c-2.66-0.226-5.324-0.836-7.985-2.467v-0.509c2.661-1.627,5.325-2.239,7.985-2.469
		c1.329-0.08,2.661,0.119,3.99,0.313c1.329,0.13,2.66,0.519,3.989,1.013c1.333,0.479,2.665,0.754,3.996,0.573
		c1.329-0.153,2.66-0.972,3.99-1.298c1.33-0.325,2.664-0.118,3.993,0.139c1.33,0.312,2.66,0.766,3.991,1.729V213.251z"/>
</g>
<polyline fill="#B2B6BD" stroke="#788496" stroke-width="3" stroke-miterlimit="10" points="266.562,217.684 267.197,213.136 
	296.07,204.701 344.53,204.869 336.486,213.758 336.83,217.721 "/>
<polyline fill="#B2B6BD" stroke="#788496" stroke-width="3" stroke-miterlimit="10" points="397.322,218.684 397.957,214.136 
	424.831,204.701 473.29,204.869 465.246,213.758 465.59,218.721 "/>
<rect x="626.18" y="214.241" fill="#989BA0" width="53.57" height="3.934"/>
<rect x="533.68" y="214.467" fill="#989BA0" width="50.325" height="3.7"/>
<polygon fill="#989BA0" points="463.837,218.721 399.013,218.721 399.013,215.02 463.837,214.02 "/>
<polygon fill="#989BA0" points="335.003,217.279 268.18,217.279 268.18,214.579 335.003,212.579 "/>
<polygon fill="#989BA0" points="201.799,217.441 136.975,217.441 136.975,213.741 201.799,212.741 "/>
<g>
	<path fill="#78705C" d="M825.676,136.668c1.961-0.678,3.393-1.001,4.669-1.223c1.219-0.182,2.387-0.329,2.987-0.1
		c0.598,0.233,0.682,0.813,1.463,0.921c0.76,0.127,1.998-0.067,3.451-0.406c1.466-0.349,2.826-0.625,3.91-0.715
		c1.153-0.139,2.31-0.28,3.167-0.221c1.659,0.159,2.907,0.59,3.083,1.741l-0.536,0.361c-3.616,1.152-6.158,1.583-8.288,1.742
		c-1.033,0.059-1.771-0.083-2.511-0.221c-0.808-0.09-1.343-0.366-1.771-0.716c-0.44-0.337-1.098-0.533-2.237-0.404
		c-1.107,0.109-2.922,0.688-4.214,0.92c-1.293,0.229-2.016,0.083-2.69-0.1c-0.62-0.22-1.084-0.543-1.019-1.222L825.676,136.668z"/>
</g>
<g>
	<path fill="#78705C" d="M713.354,218.221c2.399-0.68,4.354-1.002,6.184-1.221c1.779-0.182,3.514-0.33,4.775-0.098
		c1.263,0.231,2.086,0.811,3.504,0.916c1.389,0.133,3.186-0.066,5.159-0.402c1.987-0.35,3.888-0.626,5.552-0.716
		c1.725-0.142,3.453-0.281,4.929-0.222c2.905,0.157,5.463,0.59,7.127,1.742l-0.452,0.36c-4.546,1.151-8.188,1.583-11.487,1.745
		c-1.629,0.06-3.002-0.084-4.379-0.223c-1.438-0.09-2.646-0.365-3.756-0.715c-1.133-0.336-2.438-0.533-4.148-0.404
		c-2.509,0.158-1.695,0.404-5.808,0.918c-1.837,0.229-3.204,0.082-4.528-0.1c-1.276-0.22-2.423-0.539-3.122-1.223L713.354,218.221z"
		/>
</g>
</svg>
